#define tao-logo_width 256
#define tao-logo_height 156
static char tao-logo_bits[] = {
  0x00, 0x00, 0x00, 0x00, 0x00, 0x00, 0x00, 0x00, 0x00, 0x00, 0x00, 0x00, 
  0x00, 0x00, 0x00, 0x00, 0x00, 0x00, 0x00, 0x00, 0x00, 0x00, 0x00, 0x00, 
  0x00, 0x00, 0x00, 0x00, 0x00, 0x00, 0x00, 0x00, 0x00, 0x00, 0x00, 0x00, 
  0x00, 0x00, 0x00, 0x00, 0x00, 0x00, 0x00, 0x00, 0x00, 0x00, 0x00, 0x00, 
  0x00, 0x18, 0x00, 0x00, 0x00, 0x00, 0x00, 0x00, 0x00, 0x00, 0x00, 0x00, 
  0x00, 0x00, 0x00, 0x00, 0x00, 0x00, 0x00, 0x00, 0x00, 0x00, 0x00, 0x00, 
  0x00, 0x00, 0x00, 0x00, 0x00, 0x00, 0x00, 0x00, 0x00, 0x14, 0x00, 0x00, 
  0x00, 0x00, 0x00, 0x00, 0x00, 0x00, 0x00, 0x00, 0x00, 0x00, 0x00, 0x00, 
  0x00, 0x00, 0x00, 0x00, 0x00, 0x00, 0x00, 0x00, 0x00, 0x00, 0x00, 0x00, 
  0x00, 0x00, 0x00, 0x00, 0x00, 0x30, 0x00, 0x00, 0x00, 0x00, 0x00, 0x00, 
  0x00, 0x00, 0x00, 0x00, 0x00, 0x00, 0x00, 0x00, 0x00, 0x00, 0x00, 0x00, 
  0x00, 0x00, 0x00, 0x00, 0x00, 0x00, 0x00, 0x00, 0x00, 0x00, 0x00, 0x00, 
  0x00, 0x7E, 0x00, 0x00, 0x00, 0x00, 0x00, 0x00, 0x00, 0x00, 0x00, 0x00, 
  0x00, 0x00, 0x00, 0x00, 0x00, 0x00, 0x00, 0x00, 0x00, 0x00, 0x00, 0x00, 
  0x00, 0x00, 0x00, 0x00, 0x00, 0x00, 0x00, 0x00, 0x00, 0x7E, 0x00, 0x00, 
  0x00, 0x00, 0x00, 0x00, 0x00, 0x00, 0x00, 0x00, 0x00, 0x00, 0x00, 0x00, 
  0x00, 0x00, 0x00, 0x00, 0x00, 0x00, 0x00, 0x00, 0x00, 0x00, 0x00, 0x00, 
  0x00, 0x00, 0x00, 0x00, 0x40, 0x7F, 0x00, 0x00, 0x00, 0x00, 0x00, 0x00, 
  0x00, 0x00, 0x00, 0x00, 0x00, 0x00, 0x00, 0x00, 0x00, 0x00, 0x00, 0x00, 
  0x00, 0x00, 0x00, 0x00, 0x00, 0x00, 0x00, 0x00, 0x00, 0x00, 0x00, 0x00, 
  0xC0, 0xFF, 0x00, 0x00, 0x00, 0x00, 0x00, 0x00, 0x00, 0x00, 0x00, 0x00, 
  0x00, 0x00, 0x00, 0x00, 0x00, 0x00, 0x00, 0x00, 0x00, 0x00, 0x00, 0x00, 
  0x00, 0x00, 0x00, 0x00, 0x00, 0x00, 0x00, 0x00, 0xE0, 0xFF, 0x01, 0x00, 
  0x00, 0x00, 0x00, 0x00, 0x00, 0x00, 0x00, 0x00, 0x00, 0x00, 0x00, 0x00, 
  0x00, 0x00, 0x00, 0x00, 0x00, 0x00, 0x00, 0x00, 0x00, 0x00, 0x00, 0x00, 
  0x00, 0x00, 0x00, 0x00, 0xD8, 0xFF, 0x03, 0x00, 0x00, 0x00, 0x00, 0x00, 
  0x00, 0x00, 0x00, 0x00, 0x00, 0x00, 0x00, 0x00, 0x00, 0x00, 0x00, 0x00, 
  0x00, 0x00, 0x00, 0x00, 0x00, 0x00, 0x00, 0x00, 0x00, 0x00, 0x00, 0x00, 
  0xF8, 0xFF, 0x05, 0x00, 0x00, 0x00, 0x00, 0x00, 0x00, 0x00, 0x00, 0x00, 
  0x00, 0x00, 0x00, 0x00, 0x00, 0x00, 0x00, 0x00, 0x00, 0x00, 0x00, 0x00, 
  0x00, 0x00, 0x00, 0x00, 0x00, 0x00, 0x00, 0x00, 0xF8, 0xFF, 0x03, 0x00, 
  0x00, 0x00, 0x00, 0x00, 0x00, 0x00, 0x00, 0x00, 0x00, 0x00, 0x00, 0x00, 
  0x00, 0x00, 0x00, 0x00, 0x00, 0x00, 0x00, 0x00, 0x00, 0x00, 0x00, 0x00, 
  0x00, 0x00, 0x00, 0x00, 0xF0, 0xFF, 0x03, 0x00, 0x00, 0x00, 0x00, 0x00, 
  0x00, 0x00, 0x00, 0x00, 0x00, 0x00, 0x00, 0x00, 0x00, 0x00, 0x00, 0x00, 
  0x00, 0x00, 0x00, 0x00, 0x00, 0x00, 0x00, 0x00, 0x00, 0x00, 0x00, 0x00, 
  0xE0, 0xFF, 0x0F, 0x00, 0x00, 0x00, 0x00, 0x00, 0x00, 0x00, 0x00, 0x00, 
  0x00, 0x00, 0x00, 0x00, 0x00, 0x00, 0x00, 0x00, 0x00, 0x00, 0x00, 0x00, 
  0x00, 0x00, 0x00, 0x00, 0x00, 0x00, 0x00, 0x00, 0xE0, 0xFB, 0x03, 0x00, 
  0x00, 0x00, 0x00, 0x00, 0x00, 0x00, 0x00, 0x00, 0x00, 0x00, 0x00, 0x00, 
  0x00, 0x00, 0x00, 0x00, 0x00, 0x00, 0x00, 0x00, 0x00, 0x00, 0x00, 0x00, 
  0x00, 0x00, 0x00, 0x00, 0xE0, 0xFF, 0x0F, 0x00, 0x00, 0x00, 0x00, 0x00, 
  0x00, 0x00, 0x00, 0x00, 0x00, 0x00, 0x00, 0x00, 0x00, 0x00, 0x00, 0x00, 
  0x00, 0x00, 0x00, 0x00, 0x00, 0x00, 0x00, 0x00, 0x00, 0x00, 0x00, 0x00, 
  0xC0, 0xFF, 0x07, 0x00, 0x00, 0x00, 0x00, 0x00, 0x00, 0x00, 0x00, 0x00, 
  0x00, 0x00, 0x00, 0x00, 0x00, 0x00, 0x00, 0x00, 0x00, 0x00, 0x00, 0x00, 
  0x00, 0x00, 0x00, 0x00, 0x00, 0x00, 0x00, 0x00, 0xC0, 0xFF, 0x07, 0x00, 
  0x00, 0x00, 0x00, 0x00, 0x00, 0x00, 0x00, 0x00, 0x00, 0x00, 0x00, 0x00, 
  0x00, 0x00, 0x00, 0x00, 0x00, 0x00, 0x00, 0x00, 0x00, 0x00, 0x00, 0x00, 
  0x00, 0x00, 0x00, 0x00, 0x80, 0xFF, 0x07, 0x00, 0x00, 0x00, 0x00, 0x00, 
  0x00, 0x00, 0x00, 0x00, 0x00, 0x00, 0x00, 0x00, 0x00, 0x00, 0x00, 0x00, 
  0x00, 0x00, 0x00, 0x00, 0x00, 0x00, 0x00, 0x00, 0x00, 0x00, 0x00, 0x00, 
  0x40, 0xFF, 0x0F, 0x00, 0x00, 0x00, 0x00, 0x00, 0x00, 0x00, 0x00, 0x00, 
  0x00, 0x00, 0x00, 0x00, 0x00, 0x00, 0x00, 0x00, 0x00, 0x00, 0x00, 0x00, 
  0x00, 0x00, 0x00, 0x00, 0x00, 0x00, 0x00, 0x00, 0x80, 0xFF, 0x07, 0x00, 
  0x00, 0x00, 0x00, 0x00, 0x00, 0x00, 0x00, 0x00, 0x00, 0x00, 0x00, 0x00, 
  0x00, 0x00, 0x00, 0x00, 0x00, 0x00, 0x00, 0x00, 0x00, 0x00, 0x00, 0x00, 
  0x00, 0x00, 0x00, 0x00, 0xC0, 0xFF, 0x0F, 0x00, 0x00, 0x00, 0x00, 0x00, 
  0x00, 0x00, 0x00, 0x00, 0x00, 0x00, 0x00, 0x00, 0x00, 0x00, 0x00, 0x00, 
  0x00, 0x00, 0x00, 0x00, 0x00, 0x00, 0x00, 0x00, 0x00, 0x00, 0x00, 0x00, 
  0x80, 0xFF, 0x03, 0x00, 0x00, 0x00, 0x00, 0x00, 0x00, 0x00, 0x00, 0x00, 
  0x00, 0x00, 0x00, 0x00, 0x00, 0x00, 0x00, 0x00, 0x00, 0x00, 0x00, 0x00, 
  0x00, 0x00, 0x00, 0x00, 0x00, 0x00, 0x00, 0x00, 0x00, 0xFF, 0x07, 0x00, 
  0x00, 0x00, 0x00, 0x00, 0x00, 0x00, 0x00, 0x00, 0x00, 0x00, 0x00, 0x00, 
  0x00, 0x00, 0x00, 0x00, 0x00, 0x00, 0x00, 0x00, 0x00, 0x00, 0x00, 0x00, 
  0x00, 0x00, 0x00, 0x00, 0x80, 0xFF, 0x07, 0x00, 0x00, 0x00, 0x00, 0x00, 
  0x00, 0x00, 0x00, 0x00, 0x00, 0x00, 0x00, 0x00, 0x00, 0x00, 0x00, 0x00, 
  0x00, 0x00, 0x00, 0x00, 0x00, 0x00, 0x00, 0x00, 0x00, 0x00, 0x00, 0x00, 
  0x80, 0xFF, 0x07, 0x00, 0x00, 0x00, 0x00, 0x00, 0x00, 0x00, 0x00, 0x00, 
  0x00, 0x00, 0x00, 0x00, 0x00, 0x00, 0x00, 0x00, 0x00, 0x00, 0x00, 0x00, 
  0x00, 0x00, 0x00, 0x00, 0x00, 0x00, 0x00, 0x00, 0xC0, 0xFF, 0x05, 0x00, 
  0x00, 0x00, 0x00, 0x00, 0x00, 0x00, 0x00, 0x00, 0x00, 0x00, 0x00, 0x00, 
  0x00, 0x00, 0x00, 0x00, 0x00, 0x00, 0x00, 0x00, 0x00, 0x00, 0x00, 0x00, 
  0x00, 0x00, 0x00, 0x00, 0x40, 0xFF, 0x03, 0x00, 0x00, 0x00, 0x00, 0x00, 
  0x00, 0x00, 0x00, 0x00, 0x00, 0x00, 0x00, 0x00, 0x00, 0x00, 0x00, 0x00, 
  0x00, 0x00, 0x00, 0x00, 0x00, 0x00, 0x00, 0x00, 0x00, 0x00, 0x00, 0x00, 
  0xE0, 0xFF, 0x03, 0x00, 0x00, 0x00, 0x00, 0x00, 0x00, 0x00, 0x00, 0x00, 
  0x00, 0x00, 0x00, 0x00, 0x00, 0x00, 0x00, 0x00, 0x00, 0x00, 0x00, 0x00, 
  0x00, 0x00, 0x00, 0x00, 0x00, 0x00, 0x00, 0x00, 0x80, 0xFF, 0x01, 0x00, 
  0x00, 0x00, 0x00, 0x00, 0x00, 0x00, 0x00, 0x00, 0x00, 0x00, 0x00, 0x00, 
  0x00, 0x00, 0x00, 0x00, 0x00, 0x00, 0x00, 0x00, 0x00, 0x00, 0x00, 0x00, 
  0x00, 0x00, 0x00, 0x00, 0xE0, 0xFF, 0x03, 0x00, 0x00, 0x00, 0x00, 0x00, 
  0x00, 0x00, 0x00, 0x00, 0x00, 0x00, 0x00, 0x00, 0x00, 0x00, 0x00, 0x00, 
  0x00, 0x00, 0x00, 0x00, 0x00, 0x00, 0x00, 0x00, 0x00, 0x00, 0x00, 0x00, 
  0xF0, 0xFD, 0x00, 0x00, 0x00, 0x00, 0x00, 0x00, 0x00, 0x00, 0x00, 0x00, 
  0x00, 0x00, 0x00, 0x00, 0x00, 0x00, 0x00, 0x00, 0x00, 0x00, 0x00, 0x00, 
  0x00, 0x00, 0x00, 0x00, 0x00, 0x00, 0x00, 0x00, 0xF8, 0xFA, 0x01, 0x00, 
  0x00, 0x00, 0x00, 0x00, 0x00, 0x00, 0x00, 0x00, 0x00, 0x00, 0x00, 0x00, 
  0x00, 0x00, 0x00, 0x00, 0x00, 0x00, 0x00, 0x00, 0x00, 0x00, 0x00, 0x00, 
  0x00, 0x00, 0x00, 0x00, 0xF8, 0x7E, 0x00, 0x00, 0x00, 0x00, 0x00, 0x00, 
  0x00, 0x00, 0x00, 0x00, 0x00, 0x00, 0x00, 0x00, 0x00, 0x00, 0x00, 0x00, 
  0x00, 0x00, 0x00, 0x00, 0x00, 0x00, 0x00, 0x00, 0x00, 0x00, 0x00, 0x00, 
  0x7C, 0x7E, 0x00, 0x00, 0x00, 0x00, 0x00, 0x00, 0x00, 0x00, 0x00, 0x00, 
  0x00, 0x00, 0x00, 0x00, 0x00, 0x00, 0x00, 0x00, 0x00, 0x00, 0x00, 0x00, 
  0x00, 0x00, 0x00, 0x00, 0x00, 0x00, 0x00, 0x00, 0x1F, 0x7F, 0x00, 0x00, 
  0x00, 0x00, 0x00, 0x00, 0x00, 0x00, 0x00, 0x00, 0x00, 0x00, 0x00, 0x00, 
  0x00, 0x00, 0x00, 0x00, 0x00, 0x00, 0x00, 0x00, 0x00, 0x00, 0x00, 0x00, 
  0x00, 0x00, 0x00, 0xA0, 0x8F, 0x2F, 0x00, 0x00, 0x00, 0x00, 0x00, 0x00, 
  0x00, 0x00, 0x00, 0x00, 0x00, 0x00, 0x00, 0x00, 0x00, 0x00, 0x00, 0x00, 
  0x00, 0x00, 0x00, 0x00, 0x00, 0x00, 0x00, 0x00, 0x00, 0x00, 0x00, 0xE0, 
  0x07, 0x1F, 0x00, 0x00, 0x00, 0x00, 0x00, 0x00, 0x00, 0x00, 0x00, 0x00, 
  0x00, 0x00, 0x00, 0x00, 0x00, 0x00, 0x00, 0x00, 0x00, 0x00, 0x00, 0x00, 
  0x00, 0x00, 0x00, 0x00, 0x00, 0x00, 0x00, 0xFC, 0xD3, 0x07, 0x00, 0x00, 
  0x00, 0x00, 0x00, 0x00, 0x00, 0x00, 0x00, 0x00, 0x00, 0x00, 0x00, 0x00, 
  0x00, 0x00, 0x00, 0x00, 0x00, 0x00, 0x00, 0x04, 0x02, 0x00, 0x04, 0x01, 
  0x40, 0x10, 0xC4, 0xFF, 0xE1, 0x0F, 0x00, 0x00, 0x00, 0x00, 0x00, 0x00, 
  0x00, 0x00, 0x00, 0x00, 0x00, 0x00, 0x00, 0x00, 0x00, 0x00, 0x00, 0x00, 
  0x00, 0x00, 0x95, 0x95, 0x52, 0x91, 0xD9, 0xD4, 0x4B, 0xAD, 0xEB, 0x7F, 
  0xD0, 0x05, 0x00, 0x00, 0x00, 0x00, 0x00, 0x00, 0x00, 0x00, 0x00, 0x00, 
  0x00, 0x00, 0x00, 0x00, 0x00, 0x00, 0x00, 0x00, 0x00, 0xD6, 0xFB, 0xFB, 
  0xBF, 0xFF, 0x7F, 0x7F, 0xFE, 0x77, 0xFF, 0x3F, 0xFC, 0x01, 0x00, 0x00, 
  0x00, 0x00, 0x00, 0x00, 0x00, 0x00, 0x00, 0x00, 0x00, 0x00, 0x00, 0x00, 
  0x00, 0x00, 0x00, 0x00, 0x20, 0xF6, 0xF7, 0xFF, 0xFF, 0xFF, 0xFF, 0xFF, 
  0xFF, 0xFF, 0xFF, 0x0F, 0xFB, 0x01, 0x00, 0x00, 0x00, 0x00, 0x00, 0x00, 
  0x00, 0x00, 0x00, 0x00, 0x00, 0x00, 0x00, 0x00, 0x00, 0x00, 0x00, 0x00, 
  0xE8, 0xFF, 0xFF, 0xFF, 0xFF, 0xFF, 0xFF, 0xFF, 0xFF, 0xFF, 0xFF, 0xE3, 
  0x7F, 0x00, 0x00, 0x00, 0x00, 0x00, 0x00, 0x00, 0x00, 0x00, 0x00, 0x00, 
  0x00, 0x00, 0x00, 0x00, 0x00, 0x00, 0x00, 0x00, 0xFD, 0xFF, 0xFF, 0xFF, 
  0xFF, 0xFF, 0xFF, 0xFF, 0xFF, 0xFF, 0xFF, 0xD4, 0x5F, 0x00, 0x00, 0x00, 
  0x00, 0x00, 0x00, 0x00, 0x00, 0x00, 0x00, 0x00, 0x00, 0x00, 0x00, 0x00, 
  0x00, 0x00, 0x00, 0xD0, 0xFF, 0xFF, 0xFF, 0xFF, 0xFF, 0xFF, 0xFF, 0xFF, 
  0xFF, 0xFF, 0xFF, 0xFF, 0x17, 0x00, 0x00, 0x00, 0x00, 0x00, 0x00, 0x00, 
  0x00, 0x00, 0x00, 0x00, 0x00, 0x00, 0x00, 0x00, 0x00, 0x00, 0x00, 0xE0, 
  0xFF, 0xFF, 0xFF, 0xFF, 0xFF, 0xFF, 0xFF, 0xFF, 0xFF, 0xFF, 0xEF, 0xFF, 
  0x0B, 0x00, 0x00, 0x00, 0x00, 0x00, 0x00, 0x00, 0x00, 0x00, 0x00, 0x00, 
  0x00, 0x00, 0x00, 0x00, 0x00, 0x00, 0x00, 0xFC, 0xFF, 0xFF, 0xFF, 0xFF, 
  0xFF, 0xFF, 0xFF, 0xFF, 0xFF, 0xFF, 0xFF, 0xFF, 0x02, 0x00, 0x00, 0x00, 
  0x00, 0x00, 0x00, 0x00, 0x00, 0x00, 0x00, 0x00, 0x00, 0x00, 0x00, 0x00, 
  0x00, 0x00, 0x80, 0xFE, 0xFF, 0xFF, 0xFF, 0xFF, 0xFF, 0xFF, 0xFF, 0xFF, 
  0xFF, 0xFF, 0xFF, 0xFF, 0x00, 0x00, 0x00, 0x00, 0x00, 0x00, 0x00, 0x00, 
  0x00, 0x00, 0x00, 0x00, 0x00, 0x00, 0x00, 0x00, 0x00, 0x00, 0x80, 0xFF, 
  0xFF, 0xFF, 0xFF, 0xFF, 0xFF, 0xFF, 0xFF, 0xFF, 0xFF, 0xFF, 0xFF, 0x1F, 
  0x00, 0x00, 0x00, 0x00, 0x00, 0x00, 0x00, 0x00, 0x00, 0x00, 0x00, 0x00, 
  0x00, 0x00, 0x00, 0x00, 0x00, 0x00, 0xA0, 0xFF, 0xFF, 0xFF, 0xFF, 0xFF, 
  0xFF, 0xFF, 0xFF, 0xFF, 0xFF, 0xFF, 0xFF, 0x27, 0x00, 0x00, 0x00, 0x00, 
  0x00, 0x00, 0x00, 0x00, 0x00, 0x00, 0x00, 0x00, 0x00, 0x00, 0x00, 0x00, 
  0x00, 0x00, 0xF8, 0x9F, 0xFE, 0xFF, 0xFF, 0xFF, 0xFF, 0xFF, 0xFF, 0xFF, 
  0xFF, 0xFF, 0xFF, 0x02, 0x00, 0x00, 0x00, 0x00, 0x00, 0x00, 0x00, 0x00, 
  0x00, 0x00, 0x00, 0x00, 0x00, 0x00, 0x00, 0x00, 0x00, 0x00, 0xF4, 0x93, 
  0xFF, 0xFF, 0xFF, 0xEF, 0xFF, 0xFF, 0xFF, 0xFF, 0xFF, 0xFF, 0x7F, 0x02, 
  0x00, 0x00, 0x00, 0x00, 0x00, 0x00, 0x00, 0x00, 0x00, 0x00, 0x00, 0x00, 
  0x00, 0x00, 0x00, 0x00, 0x00, 0x00, 0xFC, 0xF0, 0xFF, 0xFF, 0xFF, 0xFF, 
  0xFF, 0xFF, 0xFF, 0xFF, 0xFF, 0xFF, 0x03, 0x00, 0x00, 0x00, 0x00, 0x00, 
  0x00, 0x00, 0x00, 0x00, 0x00, 0x00, 0x00, 0x00, 0x00, 0x00, 0x00, 0x00, 
  0x00, 0x00, 0x3F, 0xFD, 0xFF, 0xFF, 0xFF, 0xAE, 0xFF, 0xFF, 0xFF, 0xFF, 
  0xFF, 0xAE, 0x01, 0x00, 0x00, 0x00, 0x00, 0x00, 0x00, 0x00, 0x00, 0x00, 
  0x00, 0x00, 0x00, 0x00, 0x00, 0x00, 0x00, 0x00, 0x00, 0x80, 0x1F, 0xFE, 
  0xBF, 0xAD, 0x89, 0xF9, 0xFF, 0x3F, 0x98, 0xA8, 0x89, 0x08, 0x00, 0x00, 
  0x00, 0x00, 0x00, 0x00, 0x00, 0x00, 0x00, 0x00, 0x00, 0x00, 0x00, 0x00, 
  0x00, 0x00, 0x00, 0x00, 0x00, 0xC0, 0x8F, 0xFE, 0x6F, 0x04, 0x00, 0xF0, 
  0xFF, 0x3F, 0x02, 0x00, 0x00, 0x00, 0x00, 0x00, 0x00, 0x00, 0x00, 0x00, 
  0x00, 0x00, 0x00, 0x00, 0x00, 0x00, 0x00, 0x00, 0x00, 0x00, 0x00, 0x00, 
  0x00, 0xE0, 0x87, 0xFF, 0x0A, 0x00, 0x00, 0xF8, 0xFF, 0x0F, 0x00, 0x00, 
  0x00, 0x00, 0x00, 0x00, 0x00, 0x00, 0x00, 0x00, 0x00, 0x00, 0x00, 0x00, 
  0x00, 0x00, 0x00, 0x00, 0x00, 0x00, 0x00, 0x00, 0x00, 0xE0, 0xD3, 0x6F, 
  0x00, 0x00, 0x00, 0xD0, 0xFF, 0x0F, 0x00, 0x00, 0x00, 0x00, 0x00, 0x00, 
  0x00, 0x00, 0x00, 0x00, 0x00, 0x00, 0x00, 0x00, 0x00, 0x00, 0x00, 0x00, 
  0x00, 0x00, 0x00, 0x00, 0x00, 0xF0, 0xF1, 0x0F, 0x00, 0x00, 0x00, 0xF8, 
  0xFF, 0x1F, 0x00, 0x00, 0x00, 0x00, 0x00, 0x00, 0x00, 0x00, 0x00, 0x00, 
  0x00, 0x00, 0x00, 0x00, 0x00, 0x00, 0x69, 0xEE, 0x15, 0x00, 0x00, 0x00, 
  0x00, 0xF0, 0xE9, 0x07, 0x00, 0x00, 0x00, 0xF0, 0xFF, 0x0F, 0x00, 0x00, 
  0x00, 0x00, 0x00, 0x00, 0x00, 0x00, 0x00, 0x00, 0x00, 0x00, 0x00, 0x00, 
  0xA0, 0xFF, 0xFF, 0xFF, 0xFF, 0x2F, 0x00, 0x00, 0x00, 0xFC, 0xFC, 0x00, 
  0x00, 0x00, 0x00, 0xE8, 0xFF, 0x17, 0x00, 0x00, 0x00, 0x00, 0x00, 0x00, 
  0x00, 0x00, 0x00, 0x00, 0x00, 0x00, 0x00, 0x80, 0xFF, 0xFF, 0xFF, 0xFF, 
  0xFF, 0xFF, 0x01, 0x00, 0x00, 0xFE, 0xFE, 0x00, 0x00, 0x00, 0x00, 0xF8, 
  0xFF, 0x0F, 0x00, 0x00, 0x00, 0x00, 0x00, 0x00, 0x00, 0x00, 0x00, 0x00, 
  0x00, 0x00, 0x00, 0xFE, 0xFF, 0xFF, 0xFF, 0xFF, 0xFF, 0xFF, 0x1F, 0x00, 
  0x00, 0x7D, 0xBE, 0x00, 0x00, 0x00, 0x00, 0xF0, 0xFF, 0x07, 0x00, 0x00, 
  0x00, 0x00, 0x00, 0x00, 0x00, 0x00, 0x00, 0x00, 0x00, 0x00, 0xF8, 0xFF, 
  0xFF, 0xFF, 0xFF, 0xFF, 0xFF, 0xFF, 0x3F, 0x00, 0x00, 0x7E, 0x1F, 0x00, 
  0x00, 0x00, 0x00, 0xF0, 0xFF, 0x07, 0x00, 0x00, 0x00, 0x00, 0x00, 0x00, 
  0x00, 0x00, 0x00, 0x00, 0x00, 0xE0, 0xFF, 0xFF, 0xFF, 0x7F, 0xEF, 0xFF, 
  0xFF, 0xFF, 0xFF, 0x00, 0x00, 0xFF, 0x3F, 0x00, 0x00, 0x00, 0x00, 0xFC, 
  0xFF, 0x17, 0x00, 0x00, 0x00, 0x00, 0x00, 0x00, 0x00, 0x00, 0x00, 0x00, 
  0x00, 0xFE, 0xFF, 0xFF, 0xBF, 0xAD, 0xA9, 0xFA, 0xFF, 0xFF, 0xFF, 0x03, 
  0x40, 0xFF, 0x07, 0x00, 0x00, 0x00, 0x00, 0xF4, 0xFF, 0x0F, 0x00, 0x00, 
  0x00, 0x00, 0x00, 0x00, 0x00, 0x00, 0x00, 0x00, 0xF8, 0xFF, 0xFF, 0x7F, 
  0xA6, 0xA4, 0xA6, 0xD6, 0xFF, 0xFF, 0xFF, 0x07, 0x80, 0xFF, 0x0F, 0x00, 
  0x00, 0x00, 0x00, 0xF8, 0xF7, 0x07, 0x00, 0x00, 0x00, 0x00, 0x00, 0x00, 
  0x00, 0x00, 0x00, 0x80, 0xFF, 0xFF, 0xBF, 0x56, 0x25, 0x02, 0x00, 0x10, 
  0xFB, 0xFF, 0xFF, 0x07, 0xC0, 0xFF, 0x07, 0x00, 0x00, 0x00, 0x00, 0xEC, 
  0xFF, 0x07, 0x00, 0x00, 0x00, 0x00, 0x00, 0x00, 0x00, 0x00, 0x00, 0xF0, 
  0xFF, 0xBF, 0xBB, 0x45, 0x00, 0x00, 0x00, 0x00, 0xD0, 0xFF, 0xFF, 0x0F, 
  0x80, 0xFF, 0x0B, 0x00, 0x00, 0x00, 0x00, 0xF8, 0xFF, 0x0B, 0x00, 0x00, 
  0x00, 0x00, 0x00, 0x00, 0x00, 0x00, 0x00, 0xFF, 0xFF, 0x7F, 0x02, 0x00, 
  0x00, 0x00, 0x00, 0x00, 0x00, 0xFE, 0xFF, 0x0F, 0xE0, 0xFF, 0x03, 0x00, 
  0x00, 0x00, 0x00, 0xF8, 0xFF, 0x0F, 0x00, 0x00, 0x00, 0x00, 0x00, 0x00, 
  0x00, 0x00, 0xF0, 0xFF, 0x7F, 0x01, 0x01, 0x00, 0x00, 0x00, 0x00, 0x00, 
  0x01, 0xF0, 0xFF, 0x0F, 0xC0, 0xFF, 0x01, 0x00, 0x00, 0x00, 0x00, 0xFC, 
  0xFF, 0x03, 0x00, 0x00, 0x00, 0x00, 0x00, 0x00, 0x00, 0x10, 0xFC, 0xFF, 
  0xAB, 0x12, 0x00, 0x00, 0x00, 0x00, 0x00, 0xDA, 0x36, 0x80, 0xFF, 0x1F, 
  0xD0, 0xFF, 0x03, 0x00, 0x00, 0x00, 0x00, 0xFC, 0xFF, 0x07, 0x00, 0x00, 
  0x00, 0x00, 0x00, 0x00, 0x40, 0xAC, 0xC9, 0x72, 0x08, 0x00, 0x00, 0x00, 
  0x00, 0x00, 0x80, 0xF5, 0x5F, 0x81, 0xFF, 0x1F, 0xE0, 0xFF, 0x03, 0x00, 
  0x00, 0x00, 0x00, 0xFC, 0xFF, 0x07, 0x00, 0x00, 0x00, 0x00, 0x00, 0x00, 
  0x90, 0x77, 0xBF, 0x7F, 0x01, 0x00, 0x00, 0x00, 0x00, 0x00, 0xA0, 0xFF, 
  0xFF, 0x03, 0xEA, 0x0F, 0xE0, 0xFF, 0x01, 0x00, 0x00, 0x00, 0x00, 0xF8, 
  0xFF, 0x03, 0x00, 0x00, 0x00, 0x00, 0x00, 0x00, 0xE0, 0xFF, 0xFF, 0x7F, 
  0x00, 0x00, 0x00, 0x00, 0x00, 0x00, 0x70, 0xFF, 0xFF, 0x0F, 0xD6, 0x0F, 
  0xD0, 0xFF, 0x01, 0x00, 0x00, 0x00, 0x00, 0xFC, 0xFF, 0x07, 0x00, 0x00, 
  0x00, 0x00, 0x00, 0x40, 0xFF, 0xFF, 0xFF, 0x3F, 0x00, 0x00, 0x00, 0x00, 
  0x00, 0x00, 0xFE, 0xFF, 0xFF, 0x1F, 0xA8, 0x0F, 0xF0, 0xFF, 0x01, 0x00, 
  0x00, 0x00, 0x00, 0xFE, 0xFF, 0x03, 0x00, 0x00, 0x00, 0x00, 0x00, 0xD0, 
  0xFF, 0xFF, 0xFF, 0x3F, 0x00, 0x00, 0x00, 0x00, 0x00, 0x80, 0xFF, 0xFF, 
  0xFF, 0x1B, 0xB4, 0x0F, 0xE8, 0xFF, 0x01, 0x00, 0x00, 0x00, 0x00, 0xFA, 
  0xFF, 0x07, 0x00, 0x00, 0x00, 0x00, 0x00, 0xF8, 0xFF, 0xFF, 0xFF, 0x7F, 
  0x00, 0x00, 0x00, 0x00, 0x00, 0x80, 0xFF, 0xFF, 0xFF, 0x7F, 0x44, 0x05, 
  0xF0, 0xFF, 0x07, 0x00, 0x00, 0x00, 0x00, 0xFC, 0xFF, 0x03, 0x00, 0x00, 
  0x00, 0x00, 0x00, 0xFC, 0xFF, 0xFF, 0xFF, 0x7F, 0x02, 0x00, 0x00, 0x00, 
  0x00, 0xE0, 0xFF, 0xFF, 0x7F, 0x7F, 0xA0, 0x02, 0xF8, 0xFF, 0x01, 0x00, 
  0x00, 0x00, 0x00, 0xFE, 0xFF, 0x01, 0x00, 0x00, 0x00, 0x00, 0x00, 0xFF, 
  0xFF, 0xFF, 0xFF, 0xFF, 0x01, 0x00, 0x00, 0x00, 0x00, 0xF0, 0xEF, 0xFF, 
  0xFF, 0x7F, 0x28, 0x01, 0xE8, 0xFF, 0x01, 0x00, 0x00, 0x00, 0x00, 0xF8, 
  0xFF, 0x05, 0x00, 0x00, 0x00, 0x00, 0xC0, 0x7F, 0xDB, 0xFF, 0xFF, 0xFF, 
  0x01, 0x00, 0x00, 0x00, 0x00, 0xF4, 0xC9, 0xFF, 0xFF, 0xFF, 0xC4, 0x00, 
  0xF8, 0xFF, 0x05, 0x00, 0x00, 0x00, 0x00, 0xFE, 0xFF, 0x03, 0x00, 0x00, 
  0x00, 0x00, 0xE6, 0xDF, 0xFF, 0xFF, 0xFF, 0xFF, 0x07, 0x00, 0x00, 0x00, 
  0x00, 0x3C, 0xF0, 0xFF, 0xFF, 0xFF, 0x15, 0x01, 0xF8, 0xFF, 0x03, 0x00, 
  0x00, 0x00, 0x00, 0xFF, 0xFF, 0x01, 0x00, 0x00, 0x00, 0x80, 0xFB, 0xA7, 
  0xFE, 0xFF, 0xFF, 0xFF, 0x03, 0x00, 0x00, 0x00, 0x00, 0x1F, 0xFA, 0xFF, 
  0xFF, 0xFF, 0x41, 0x00, 0xF0, 0xFF, 0x03, 0x00, 0x00, 0x00, 0x00, 0xFD, 
  0xFF, 0x03, 0x00, 0x00, 0x00, 0xF0, 0xFF, 0xEA, 0xFF, 0xFF, 0xFF, 0xFF, 
  0x03, 0x00, 0x00, 0x00, 0x00, 0x8F, 0xFD, 0xFF, 0xFF, 0xFF, 0x1B, 0x00, 
  0xF8, 0xFF, 0x07, 0x00, 0x00, 0x00, 0x00, 0xFC, 0xFF, 0x01, 0x00, 0x00, 
  0x00, 0xFE, 0xFC, 0xEB, 0xEF, 0xFF, 0xFF, 0xFF, 0x00, 0x00, 0x00, 0x00, 
  0x80, 0x07, 0xFE, 0xFD, 0xFF, 0xFF, 0x10, 0x00, 0xF8, 0xFF, 0x07, 0x00, 
  0x00, 0x00, 0x00, 0xFF, 0xFF, 0x02, 0x00, 0x00, 0x80, 0x7F, 0x3F, 0xF8, 
  0x6F, 0xF5, 0xFB, 0xFF, 0x03, 0x00, 0x00, 0x00, 0xE0, 0xC3, 0x5F, 0xCB, 
  0xFF, 0xFF, 0x06, 0x00, 0xF8, 0xFF, 0x07, 0x00, 0x00, 0x00, 0x00, 0xFD, 
  0xFF, 0x01, 0x00, 0x00, 0xE0, 0x3F, 0x1F, 0xFD, 0x82, 0x58, 0xF5, 0xFF, 
  0x00, 0x00, 0x00, 0x00, 0xE0, 0x91, 0x37, 0xA0, 0xFF, 0xFF, 0x13, 0x00, 
  0xF8, 0xFF, 0x07, 0x00, 0x00, 0x00, 0x00, 0xFE, 0xFF, 0x03, 0x00, 0x00, 
  0xFC, 0xD7, 0x4F, 0x3F, 0x00, 0x40, 0xFD, 0xFF, 0x01, 0x00, 0x00, 0x00, 
  0xF0, 0xF0, 0x07, 0x00, 0xFC, 0x3F, 0x08, 0x00, 0xF8, 0xFF, 0x0F, 0x00, 
  0x00, 0x00, 0x00, 0x7F, 0xFF, 0x00, 0x00, 0x00, 0xFF, 0xEF, 0xC7, 0x2B, 
  0x00, 0x00, 0xFE, 0xFF, 0x01, 0x00, 0x00, 0x00, 0xF8, 0xF8, 0x02, 0x00, 
  0xF8, 0xBF, 0x16, 0x00, 0xF0, 0xFF, 0x1F, 0x00, 0x00, 0x00, 0x00, 0xFE, 
  0xFF, 0x01, 0x00, 0xE0, 0xFF, 0xE0, 0xF3, 0x07, 0x00, 0x00, 0xFE, 0x7F, 
  0x00, 0x00, 0x00, 0x00, 0x74, 0xBA, 0x00, 0x00, 0xF8, 0xDF, 0x01, 0x00, 
  0xF8, 0xFF, 0x07, 0x00, 0x00, 0x00, 0x00, 0xFF, 0xFF, 0x01, 0x00, 0xF8, 
  0x75, 0xF8, 0xFB, 0x07, 0x00, 0x00, 0xFE, 0xFF, 0x00, 0x00, 0x00, 0x00, 
  0x78, 0xBC, 0x00, 0x00, 0xF0, 0x3F, 0x1E, 0x00, 0xF8, 0xFF, 0x1F, 0x00, 
  0x00, 0x00, 0x80, 0xFE, 0xFF, 0x01, 0x00, 0xFE, 0x0F, 0xFA, 0x7B, 0x01, 
  0x00, 0x00, 0xFD, 0xFF, 0x01, 0x00, 0x00, 0x00, 0x3E, 0x5F, 0x00, 0x00, 
  0xE0, 0x6F, 0x1F, 0x00, 0xF0, 0xFF, 0x07, 0x00, 0x00, 0x00, 0x00, 0xFF, 
  0xFF, 0x00, 0x80, 0x7F, 0x0A, 0xFA, 0x7E, 0x01, 0x00, 0x00, 0xFE, 0x7F, 
  0x00, 0x00, 0x00, 0x00, 0xBF, 0x0F, 0x00, 0x00, 0xF0, 0xEF, 0x0F, 0x00, 
  0xF8, 0xFF, 0x05, 0x00, 0x00, 0x00, 0x80, 0xFE, 0xFF, 0x01, 0xE0, 0xBF, 
  0x01, 0xFE, 0xFD, 0x00, 0x00, 0x00, 0xFD, 0xFF, 0x00, 0x00, 0x00, 0x80, 
  0x9E, 0x1E, 0x00, 0x00, 0xE0, 0xD7, 0x3F, 0x00, 0xF0, 0xFF, 0x01, 0x00, 
  0x00, 0x00, 0x00, 0xFF, 0xFF, 0x01, 0xF8, 0x7F, 0x80, 0xFE, 0x3F, 0x00, 
  0x00, 0x00, 0xFF, 0x7F, 0x00, 0x00, 0x00, 0x80, 0xBF, 0x0F, 0x00, 0x00, 
  0xE0, 0xE5, 0x1F, 0x00, 0xF0, 0x7F, 0x01, 0x00, 0x00, 0x00, 0x80, 0xFE, 
  0xFF, 0x00, 0xFF, 0x05, 0x00, 0x7F, 0x3F, 0x00, 0x00, 0x00, 0xFF, 0xFF, 
  0x00, 0x00, 0x00, 0x00, 0xDF, 0x03, 0x00, 0x00, 0xA0, 0xFF, 0x1F, 0x00, 
  0xD0, 0x7F, 0x00, 0x00, 0x00, 0x00, 0x80, 0xFF, 0x7F, 0x80, 0xFF, 0x04, 
  0xC0, 0xFF, 0x1F, 0x00, 0x00, 0x00, 0xFF, 0xFF, 0x00, 0x00, 0x00, 0xC0, 
  0xEF, 0x07, 0x00, 0x00, 0xE0, 0xFD, 0x2F, 0x00, 0x80, 0x5F, 0x00, 0x00, 
  0x00, 0x00, 0x00, 0xFF, 0xFF, 0xF1, 0x9F, 0x01, 0x80, 0xFF, 0x1F, 0x00, 
  0x00, 0x00, 0xFF, 0x7F, 0x00, 0x00, 0x00, 0xA0, 0xFF, 0x03, 0x00, 0x00, 
  0xC0, 0xFF, 0x3F, 0x00, 0x80, 0x1F, 0x00, 0x00, 0x00, 0x00, 0x80, 0xFE, 
  0xFF, 0xF8, 0x37, 0x00, 0xA0, 0xFF, 0x0F, 0x00, 0x00, 0x80, 0xFF, 0x3F, 
  0x00, 0x00, 0x00, 0xF0, 0xFF, 0x00, 0x00, 0x00, 0x60, 0xFF, 0x1F, 0x00, 
  0x00, 0x07, 0x00, 0x00, 0x00, 0x00, 0x80, 0xFF, 0xFF, 0xFF, 0x0D, 0x00, 
  0xE0, 0xFF, 0x07, 0x00, 0x00, 0x80, 0xFE, 0xFF, 0x00, 0x00, 0x00, 0xE0, 
  0xFF, 0x01, 0x00, 0x00, 0xF0, 0xFF, 0x3F, 0x00, 0x80, 0x07, 0x00, 0x00, 
  0x00, 0x00, 0x80, 0xFF, 0xFF, 0x7F, 0x03, 0x00, 0xF0, 0xFF, 0x0D, 0x00, 
  0x00, 0x80, 0xFF, 0x7F, 0x00, 0x00, 0x00, 0xE0, 0x7F, 0x01, 0x00, 0x00, 
  0x78, 0xFF, 0x3F, 0x00, 0x80, 0x02, 0x00, 0x00, 0x00, 0x00, 0x80, 0xFF, 
  0xFF, 0xFF, 0x00, 0x00, 0xE8, 0xFF, 0x03, 0x00, 0x00, 0x80, 0xFF, 0x1F, 
  0x00, 0x00, 0x00, 0xFC, 0xFF, 0x00, 0x00, 0x00, 0xCE, 0xFF, 0x1F, 0x00, 
  0x00, 0x00, 0x00, 0x00, 0x00, 0x00, 0x80, 0xEF, 0xFF, 0x3F, 0x00, 0x00, 
  0xF0, 0xFF, 0x03, 0x00, 0x00, 0x80, 0xFF, 0x5F, 0x00, 0x00, 0x00, 0xF8, 
  0x7F, 0x00, 0x00, 0x00, 0xC7, 0xFF, 0x3F, 0x00, 0x00, 0x00, 0x00, 0x00, 
  0x00, 0x00, 0x80, 0xFF, 0xFF, 0x0B, 0x00, 0x00, 0xFC, 0xFF, 0x03, 0x00, 
  0x00, 0x60, 0xFF, 0x7F, 0x00, 0x00, 0x00, 0xF8, 0xFF, 0x00, 0x00, 0x80, 
  0x81, 0xFF, 0x1F, 0x00, 0x00, 0x00, 0x00, 0x00, 0x00, 0x00, 0x80, 0xFF, 
  0xFF, 0x05, 0x00, 0x00, 0xFA, 0xFF, 0x01, 0x00, 0x00, 0xE0, 0xFF, 0x3F, 
  0x00, 0x00, 0x00, 0xFC, 0x7F, 0x00, 0x00, 0xC0, 0xC0, 0xFF, 0x3F, 0x00, 
  0x00, 0x00, 0x00, 0x00, 0x00, 0x00, 0xC0, 0xFF, 0xFF, 0x01, 0x00, 0x00, 
  0xFC, 0xFF, 0x01, 0x00, 0x00, 0xC0, 0xFF, 0x3F, 0x00, 0x00, 0x00, 0xFE, 
  0x7F, 0x00, 0x00, 0x30, 0xC0, 0xFF, 0x2F, 0x00, 0x00, 0x00, 0x00, 0x00, 
  0x00, 0x00, 0x40, 0xFF, 0x7F, 0x00, 0x00, 0x00, 0xFE, 0xFF, 0x01, 0x00, 
  0x00, 0xF0, 0xFF, 0x5F, 0x00, 0x00, 0x00, 0xF9, 0x7F, 0x00, 0x00, 0x1C, 
  0xE0, 0xFF, 0x1F, 0x00, 0x00, 0x00, 0x00, 0x00, 0x00, 0x00, 0xC0, 0xFF, 
  0xFF, 0x00, 0x00, 0x00, 0xFE, 0xFF, 0x00, 0x00, 0x00, 0xC0, 0xFF, 0x3F, 
  0x00, 0x00, 0x00, 0xFE, 0x3F, 0x00, 0x00, 0x04, 0x80, 0xFF, 0x1F, 0x00, 
  0x00, 0x00, 0x00, 0x00, 0x00, 0x00, 0xE0, 0xFF, 0x3F, 0x00, 0x00, 0x80, 
  0xFF, 0x7F, 0x00, 0x00, 0x00, 0xF8, 0xFF, 0x3F, 0x00, 0x00, 0x00, 0xFF, 
  0x3F, 0x00, 0x00, 0x01, 0x80, 0xFF, 0x0F, 0x00, 0x00, 0x00, 0x00, 0x00, 
  0x00, 0x00, 0x00, 0xFF, 0x7F, 0x00, 0x00, 0x00, 0xFE, 0xFF, 0x00, 0x00, 
  0x00, 0xE0, 0xFF, 0x1F, 0x00, 0x00, 0x80, 0xFE, 0x1F, 0x00, 0x80, 0x00, 
  0xE0, 0xFD, 0x1F, 0x00, 0x00, 0x00, 0x00, 0x00, 0x00, 0x00, 0xC0, 0xFF, 
  0x7F, 0x00, 0x00, 0x00, 0xFE, 0x3F, 0x00, 0x00, 0x00, 0xF0, 0xFF, 0x3F, 
  0x00, 0x00, 0x00, 0xFF, 0x3F, 0x00, 0x60, 0x00, 0xE0, 0xFF, 0x1F, 0x00, 
  0x00, 0x00, 0x00, 0x00, 0x00, 0x00, 0x60, 0xFF, 0x3F, 0x00, 0x00, 0x80, 
  0xFF, 0xFF, 0x00, 0x00, 0x00, 0xFC, 0xFF, 0x0F, 0x00, 0x00, 0x80, 0xFF, 
  0x2F, 0x00, 0x08, 0x00, 0x80, 0xFF, 0x0F, 0x00, 0x00, 0x00, 0x00, 0x00, 
  0x00, 0x00, 0xF8, 0xFF, 0x3F, 0x00, 0x00, 0x40, 0xFF, 0x3F, 0x00, 0x00, 
  0x00, 0xFA, 0xFF, 0x3F, 0x00, 0x00, 0x00, 0xFF, 0x1F, 0x00, 0x02, 0x00, 
  0x60, 0xFF, 0x1F, 0x00, 0x00, 0x00, 0x00, 0x00, 0x00, 0x00, 0xBC, 0xFF, 
  0x7F, 0x00, 0x00, 0x80, 0xFF, 0x7F, 0x00, 0x00, 0x00, 0xFC, 0xFF, 0x0F, 
  0x00, 0x00, 0xC0, 0xFF, 0x1F, 0x00, 0x00, 0x00, 0xC0, 0xFF, 0x07, 0x00, 
  0x00, 0x00, 0x00, 0x00, 0x00, 0x00, 0xFE, 0xFF, 0x3F, 0x00, 0x00, 0x40, 
  0xFF, 0x1F, 0x00, 0x00, 0x00, 0xFE, 0xFF, 0x1F, 0x00, 0x00, 0x80, 0xFF, 
  0x1F, 0x00, 0x00, 0x00, 0xE0, 0xFF, 0x07, 0x00, 0x00, 0x00, 0x00, 0x00, 
  0x00, 0x80, 0xDF, 0xFF, 0x7F, 0x00, 0x00, 0xC0, 0xFF, 0x7F, 0x00, 0x00, 
  0x00, 0xEE, 0xFF, 0x0F, 0x00, 0x00, 0xC0, 0xFF, 0x1F, 0x00, 0x00, 0x00, 
  0xE0, 0xFF, 0x07, 0x00, 0x00, 0x00, 0x00, 0x00, 0x00, 0xC0, 0xFF, 0xFF, 
  0x0F, 0x00, 0x00, 0xA0, 0xFF, 0x3F, 0x00, 0x00, 0x00, 0xFF, 0xFF, 0x1F, 
  0x00, 0x00, 0x40, 0xFF, 0x1F, 0x00, 0x00, 0x00, 0xD0, 0xFF, 0x07, 0x00, 
  0x00, 0x00, 0x00, 0x00, 0x00, 0xF0, 0xDF, 0xFF, 0x7F, 0x00, 0x00, 0xC0, 
  0xFF, 0x3F, 0x00, 0x00, 0x80, 0xE7, 0xFF, 0x0F, 0x00, 0x00, 0xC0, 0xFF, 
  0x1F, 0x00, 0x00, 0x00, 0xE0, 0xFF, 0x0B, 0x00, 0x00, 0x00, 0x00, 0x00, 
  0x00, 0xF8, 0x9F, 0xFF, 0x1F, 0x00, 0x00, 0xE0, 0xFF, 0x0F, 0x00, 0x00, 
  0xC0, 0xE7, 0xFF, 0x07, 0x00, 0x00, 0xA0, 0xFF, 0x3F, 0x00, 0x00, 0x00, 
  0xE0, 0xFF, 0x03, 0x00, 0x00, 0x00, 0x00, 0x00, 0x00, 0xFC, 0xFF, 0xFF, 
  0x3F, 0x00, 0x00, 0x80, 0xFF, 0x3F, 0x00, 0x00, 0xC0, 0xD3, 0xFF, 0x1F, 
  0x00, 0x00, 0xC0, 0xFF, 0x0F, 0x00, 0x00, 0x00, 0xF0, 0xFF, 0x01, 0x00, 
  0x00, 0x00, 0x00, 0x00, 0x00, 0xFE, 0xFF, 0xFF, 0x1F, 0x00, 0x00, 0xF0, 
  0xFF, 0x1F, 0x00, 0x00, 0xC0, 0xF1, 0xFF, 0x07, 0x00, 0x00, 0xC0, 0xFF, 
  0x1F, 0x00, 0x00, 0x00, 0xE8, 0xFF, 0x03, 0x00, 0x00, 0x00, 0x00, 0x00, 
  0x00, 0xFF, 0xEF, 0xFF, 0x1F, 0x00, 0x00, 0xC0, 0xFF, 0x1F, 0x00, 0x00, 
  0xF0, 0xDC, 0xFF, 0x1F, 0x00, 0x00, 0xE0, 0xFF, 0x17, 0x00, 0x00, 0x00, 
  0xF0, 0xFF, 0x00, 0x00, 0x00, 0x00, 0x00, 0x00, 0x80, 0xFF, 0xF3, 0xFF, 
  0x1F, 0x00, 0x00, 0xF0, 0xFF, 0x1F, 0x00, 0x00, 0xF8, 0xFA, 0xFF, 0x07, 
  0x00, 0x00, 0x80, 0xFF, 0x0F, 0x00, 0x00, 0x00, 0xF8, 0xFF, 0x01, 0x00, 
  0x00, 0x00, 0x00, 0x00, 0xC0, 0xFF, 0xE9, 0xFF, 0x1F, 0x00, 0x00, 0xA0, 
  0xFF, 0x1F, 0x00, 0x00, 0x78, 0xE4, 0xFF, 0x07, 0x00, 0x00, 0xE0, 0xFF, 
  0x3F, 0x00, 0x00, 0x00, 0xF8, 0xFF, 0x00, 0x00, 0x00, 0x00, 0x00, 0x00, 
  0xE0, 0xFF, 0xE8, 0xFF, 0x0F, 0x00, 0x00, 0xF0, 0xFF, 0x0F, 0x00, 0x00, 
  0x3C, 0xFD, 0xFF, 0x07, 0x60, 0x00, 0xE0, 0xFF, 0x1F, 0x00, 0x00, 0x00, 
  0xF8, 0xFF, 0x00, 0x00, 0x00, 0x00, 0x00, 0x00, 0xF0, 0x7F, 0xF4, 0xFE, 
  0x1F, 0x00, 0x00, 0xD0, 0xFF, 0x1F, 0x00, 0x00, 0x3E, 0xEE, 0xFF, 0x07, 
  0x70, 0x00, 0xA0, 0xFF, 0x1F, 0x00, 0x00, 0x00, 0xFC, 0x3F, 0x00, 0x00, 
  0x00, 0x00, 0x00, 0x00, 0xF8, 0x7F, 0xFC, 0xFF, 0x0F, 0x00, 0x00, 0xF0, 
  0xFF, 0x1F, 0x00, 0x00, 0x9F, 0xFE, 0xFF, 0x07, 0x60, 0x00, 0xE0, 0xFF, 
  0x1F, 0x00, 0x00, 0x00, 0xFC, 0x7F, 0x00, 0x00, 0x00, 0x00, 0x00, 0x00, 
  0xF8, 0x3F, 0xFA, 0xFF, 0x0F, 0x00, 0x00, 0xE0, 0xFF, 0x0F, 0x00, 0x80, 
  0x8F, 0xF7, 0xFF, 0x07, 0x78, 0x00, 0xC0, 0xFF, 0x1F, 0x00, 0x00, 0x00, 
  0xBE, 0x1F, 0x00, 0x00, 0x00, 0x00, 0x00, 0x00, 0xFC, 0x1F, 0xFE, 0xFF, 
  0x07, 0x00, 0x00, 0xF0, 0xFF, 0x1F, 0x00, 0xC0, 0xC7, 0xFD, 0xFF, 0x07, 
  0x78, 0x00, 0xC0, 0xFF, 0x2F, 0x00, 0x00, 0x00, 0xFF, 0x1F, 0x00, 0x00, 
  0x00, 0x00, 0x00, 0x00, 0xFE, 0x1F, 0xFC, 0xFF, 0x0F, 0x00, 0x00, 0xD0, 
  0xFF, 0x0F, 0x00, 0xD0, 0xD3, 0xF7, 0xFF, 0x0B, 0x3C, 0x02, 0xE0, 0xFF, 
  0x3F, 0x00, 0x00, 0x00, 0x9E, 0x1F, 0x00, 0x00, 0x00, 0x00, 0x00, 0x00, 
  0xFF, 0x0F, 0xFD, 0xFF, 0x03, 0x00, 0x00, 0xE0, 0xFF, 0x1F, 0x00, 0xE0, 
  0xD1, 0xE7, 0xFF, 0x03, 0x1E, 0x02, 0xE0, 0xFF, 0x1F, 0x00, 0x00, 0x00, 
  0xCF, 0x0F, 0x00, 0x00, 0x00, 0x00, 0x00, 0x00, 0xFF, 0x07, 0xFF, 0xFF, 
  0x07, 0x00, 0x00, 0xF0, 0xFF, 0x0F, 0x00, 0xF8, 0xF9, 0xF9, 0xFF, 0x03, 
  0x8E, 0x0B, 0x80, 0xFF, 0x3F, 0x00, 0x00, 0xC0, 0xE7, 0x0B, 0x00, 0x00, 
  0x00, 0x00, 0x00, 0x80, 0xFF, 0x07, 0xFF, 0xFF, 0x02, 0x00, 0x00, 0xF0, 
  0xFF, 0x0F, 0x00, 0x7C, 0xB4, 0xFD, 0xFF, 0x03, 0x8F, 0x07, 0xC0, 0xFF, 
  0x1F, 0x00, 0x00, 0xC0, 0xD7, 0x05, 0x00, 0x00, 0x00, 0x00, 0x00, 0x80, 
  0xFF, 0xC3, 0xFF, 0xFF, 0x01, 0x00, 0x00, 0xE0, 0xFF, 0x1F, 0x80, 0x7F, 
  0x7A, 0xF8, 0xFF, 0x03, 0x47, 0x07, 0xC0, 0xFF, 0x7F, 0x00, 0x00, 0xE0, 
  0xF1, 0x03, 0x00, 0x00, 0x00, 0x00, 0x00, 0xC0, 0xFF, 0xA3, 0xFF, 0xFF, 
  0x01, 0x00, 0x00, 0xF0, 0xFF, 0x0F, 0x40, 0x1F, 0x7D, 0xF8, 0xFF, 0xC5, 
  0xC3, 0x02, 0xC0, 0xFF, 0x7F, 0x00, 0x00, 0xF0, 0xF9, 0x01, 0x00, 0x00, 
  0x00, 0x00, 0x00, 0xC0, 0xFF, 0xC3, 0xFF, 0xBF, 0x00, 0x00, 0x00, 0xE0, 
  0xFF, 0x1F, 0xC0, 0x5F, 0x3F, 0xF4, 0xFF, 0xC3, 0xE3, 0x01, 0x80, 0xFF, 
  0x7F, 0x00, 0x00, 0x78, 0xF0, 0x01, 0x00, 0x00, 0x00, 0x00, 0x00, 0xC0, 
  0xFB, 0xF3, 0xF3, 0x7F, 0x00, 0x00, 0x00, 0xF0, 0xFF, 0x2F, 0xF6, 0x8F, 
  0x1F, 0xFC, 0xFF, 0xE9, 0x71, 0x01, 0x80, 0xFF, 0x7F, 0x00, 0x00, 0x7C, 
  0x3C, 0x00, 0x00, 0x00, 0x00, 0x00, 0x00, 0xC0, 0x24, 0xFA, 0xBD, 0x17, 
  0x00, 0x00, 0x00, 0xE0, 0xFF, 0x5F, 0xFA, 0xE7, 0x17, 0xE8, 0xFF, 0xF1, 
  0xF0, 0x00, 0x80, 0xFF, 0xFF, 0x03, 0x00, 0x1E, 0x7A, 0x00, 0x00, 0x00, 
  0x00, 0x00, 0x00, 0x40, 0xEF, 0xF9, 0x53, 0x06, 0x18, 0x00, 0x00, 0xE0, 
  0xFB, 0xFF, 0xFF, 0xD3, 0x07, 0xFC, 0xDF, 0x7D, 0xE0, 0x00, 0x80, 0xFF, 
  0xFF, 0x07, 0x40, 0x1F, 0x7E, 0x00, 0x00, 0x00, 0x00, 0x00, 0x00, 0x80, 
  0xFF, 0xFF, 0xFF, 0xFB, 0x3F, 0x00, 0x00, 0xE0, 0xFF, 0xFF, 0xFF, 0xFC, 
  0x07, 0xF8, 0xFF, 0x3F, 0x3C, 0x00, 0x00, 0xFF, 0xFF, 0xB5, 0xD5, 0x07, 
  0x1F, 0x00, 0x00, 0x00, 0x00, 0x00, 0x00, 0xC0, 0xFF, 0xFF, 0xFF, 0xFF, 
  0x1F, 0x00, 0x00, 0xE0, 0xFF, 0xFF, 0xFF, 0xFC, 0x02, 0xFE, 0xFF, 0x3F, 
  0x3A, 0x00, 0x00, 0xFF, 0xFF, 0xDB, 0xF7, 0x43, 0x0F, 0x00, 0x00, 0x00, 
  0x00, 0x00, 0x00, 0xF0, 0xFF, 0xFF, 0xFF, 0xFF, 0x07, 0x00, 0x00, 0xC0, 
  0xFF, 0xFF, 0x7F, 0xFF, 0x80, 0xFC, 0xFF, 0x0F, 0x2D, 0x00, 0x00, 0xFE, 
  0xFF, 0xFF, 0xFF, 0xC1, 0x05, 0x00, 0x00, 0x00, 0x00, 0x00, 0x00, 0xE0, 
  0xFF, 0xFF, 0xFF, 0xFF, 0x07, 0x00, 0x00, 0xC0, 0xFF, 0xFF, 0xDF, 0x7F, 
  0x1D, 0xFC, 0xFF, 0x47, 0x1F, 0x00, 0x00, 0xFC, 0xFF, 0xFF, 0x7F, 0xE0, 
  0x0B, 0x00, 0x00, 0x00, 0x00, 0x00, 0x00, 0xFC, 0xFF, 0xFF, 0xF7, 0xFF, 
  0x0B, 0x00, 0x00, 0xC0, 0xFF, 0xFF, 0xFF, 0xFF, 0x01, 0xFC, 0xFF, 0xEF, 
  0x0B, 0x00, 0x00, 0xFC, 0xFF, 0xFF, 0x3F, 0xFA, 0x01, 0x00, 0x00, 0x00, 
  0x00, 0x00, 0x00, 0xFF, 0xFF, 0xFF, 0xFF, 0xFF, 0x2B, 0x00, 0x00, 0x80, 
  0xFF, 0xFF, 0xFF, 0x3F, 0x00, 0xFC, 0xFF, 0xFF, 0x0B, 0x00, 0x00, 0xF8, 
  0xFF, 0xFF, 0x4F, 0x7D, 0x01, 0x00, 0x00, 0x00, 0x00, 0x00, 0x80, 0xFF, 
  0xFF, 0xFF, 0xFF, 0xFF, 0xFF, 0x02, 0x00, 0x00, 0xFF, 0xFF, 0xFF, 0x1F, 
  0x00, 0xF8, 0xFF, 0xFF, 0x03, 0x00, 0x00, 0xF8, 0xFF, 0xFF, 0xDF, 0xFE, 
  0x00, 0x00, 0x00, 0x00, 0x00, 0x00, 0x00, 0xA0, 0xFF, 0xFF, 0xFF, 0xFF, 
  0xFF, 0x01, 0x00, 0x00, 0xFF, 0xFF, 0xFF, 0x07, 0x00, 0xF0, 0xFF, 0xFF, 
  0x01, 0x00, 0x00, 0xF8, 0xFF, 0xFF, 0xFF, 0x3F, 0x00, 0x00, 0x00, 0x00, 
  0x00, 0x00, 0x00, 0x00, 0xFF, 0xFF, 0xFF, 0xFF, 0xFF, 0x02, 0x01, 0xE4, 
  0xFF, 0xFF, 0xFF, 0x03, 0x00, 0xF0, 0xFF, 0x7F, 0x00, 0x00, 0x00, 0xE0, 
  0xFF, 0xFF, 0xFF, 0x0F, 0x00, 0x00, 0x00, 0x00, 0x00, 0x00, 0x00, 0xE0, 
  0xFF, 0xFF, 0xFF, 0xFF, 0xFF, 0xFF, 0xFF, 0xFF, 0xFF, 0xFF, 0x7F, 0x00, 
  0x00, 0xE0, 0xFF, 0x7F, 0x00, 0x00, 0x00, 0xE0, 0xFF, 0xFF, 0xFF, 0x0B, 
  0x00, 0x00, 0x00, 0x00, 0x00, 0x00, 0x00, 0xE0, 0xFF, 0xFF, 0xFF, 0xFF, 
  0xFF, 0xFF, 0xFF, 0x7F, 0xFF, 0xFF, 0xFF, 0x00, 0x00, 0xC0, 0xFF, 0x1F, 
  0x00, 0x00, 0x00, 0xA0, 0xFF, 0xFF, 0xFF, 0x03, 0x00, 0x00, 0x00, 0x00, 
  0x00, 0x00, 0x00, 0xF0, 0xFF, 0xFF, 0xFF, 0xFF, 0xFF, 0xFF, 0x9B, 0x01, 
  0xFC, 0xFF, 0x0F, 0x00, 0x00, 0xA0, 0xFF, 0x1F, 0x00, 0x00, 0x00, 0x80, 
  0xFF, 0xFF, 0xBF, 0x01, 0x00, 0x00, 0x00, 0x00, 0x00, 0x00, 0x00, 0xA8, 
  0xFF, 0xFF, 0xFF, 0xFF, 0x1F, 0x00, 0x00, 0x00, 0xF0, 0xFF, 0x17, 0x00, 
  0x00, 0xC0, 0xFF, 0x0B, 0x00, 0x00, 0x00, 0x00, 0xFE, 0xFF, 0x5F, 0x00, 
  0x00, 0x00, 0x00, 0x00, 0x00, 0x00, 0x00, 0xA0, 0xBB, 0xF7, 0x6F, 0xFF, 
  0x07, 0x00, 0x00, 0x00, 0xE0, 0xFF, 0x03, 0x00, 0x00, 0xC0, 0xFF, 0x02, 
  0x00, 0x00, 0x00, 0x00, 0xFC, 0xFF, 0x27, 0x00, 0x00, 0x00, 0x00, 0x00, 
  0x00, 0x00, 0x00, 0x00, 0x80, 0x04, 0xDA, 0xAA, 0x00, 0x00, 0x00, 0x00, 
  0x80, 0x5B, 0x00, 0x00, 0x00, 0x00, 0xAA, 0x00, 0x00, 0x00, 0x00, 0x00, 
  0x62, 0xB7, 0x04, 0x00, 0x00, 0x00, 0x00, 0x00, 0x00, 0x00, 0x00, 0x00, 
  0x00, 0x00, 0x00, 0x44, 0x00, 0x00, 0x00, 0x00, 0x60, 0x0A, 0x00, 0x00, 
  0x00, 0x00, 0x08, 0x00, 0x00, 0x00, 0x00, 0x00, 0x40, 0x92, 0x00, 0x00, 
  0x00, 0x00, 0x00, 0x00, 0x00, 0x00, 0x00, 0x00, 0x00, 0x00, 0x00, 0x00, 
  0x00, 0x00, 0x00, 0x00, 0x00, 0x00, 0x00, 0x00, 0x00, 0x00, 0x04, 0x00, 
  0x00, 0x00, 0x00, 0x00, 0x00, 0x00, 0x00, 0x00, 0x00, 0x00, 0x00, 0x00, 
  };
